<svg width="27" height="31" viewBox="0 0 27 31" fill="none" xmlns="http://www.w3.org/2000/svg">
<path d="M1.09549 9.5361L1.09553 9.53615L1.10175 9.53168L4.14889 7.34231L4.35714 7.19268V6.93625V5.8125C4.35714 5.02084 5.00332 4.375 5.78571 4.375H8.1H8.26083L8.39151 4.28123L13.5 0.615414L18.6085 4.28123L18.7392 4.375H18.9H21.2143C21.9967 4.375 22.6429 5.02084 22.6429 5.8125V6.93625V7.19268L22.8511 7.34231L25.8982 9.53169L25.9014 9.5339C26.2886 9.80766 26.5 10.2168 26.5 10.695V27.125C26.5 27.9167 25.8538 28.5625 25.0714 28.5625H1.92857C1.14617 28.5625 0.5 27.9167 0.5 27.125V10.695C0.5 10.2179 0.72964 9.79056 1.09549 9.5361ZM5.28571 14.5312V14.8077L5.51983 14.9547L13.2341 19.7984L13.5 19.9654L13.7659 19.7984L21.4802 14.9547L21.7143 14.8077V14.5312V5.8125V5.3125H21.2143H5.78571H5.28571V5.8125V14.5312ZM1.42857 26.1562V27.0929L2.20681 26.5717L10.8854 20.7592L11.5057 20.3438L10.8854 19.9283L2.20681 14.1158L1.42857 13.5946V14.5312V26.1562ZM23.1429 27.625H24.9409L23.401 26.6968L13.7581 20.8843L13.5 20.7287L13.2419 20.8843L3.59902 26.6968L2.05912 27.625H3.85714H23.1429ZM25.5714 14.5312V13.5946L24.7932 14.1158L16.1146 19.9283L15.4943 20.3438L16.1146 20.7592L24.7932 26.5717L25.5714 27.0929V26.1562V14.5312ZM11.0714 9.1875H8.21429V8.25H11.0714V9.1875ZM8.21429 13.0625V12.125H16.8571V13.0625H8.21429Z" stroke="#DADADA" stroke-opacity="0.5"/>
</svg>
