<svg width="14" height="12" viewBox="0 0 14 12" fill="none" xmlns="http://www.w3.org/2000/svg">
<path d="M11.8538 6.83956V10.7949C11.8538 10.9377 11.8016 11.0613 11.6973 11.1657C11.5929 11.2701 11.4693 11.3223 11.3264 11.3223H8.16218V8.15801H6.05267V11.3223H2.8884C2.74557 11.3223 2.62196 11.2701 2.51759 11.1657C2.41321 11.0613 2.36102 10.9377 2.36102 10.7949V6.83956C2.36102 6.83407 2.3624 6.82583 2.36514 6.81484C2.36789 6.80386 2.36926 6.79562 2.36926 6.79012L7.10742 2.88423L11.8456 6.79012C11.8511 6.80111 11.8538 6.81759 11.8538 6.83956ZM13.6914 6.27099L13.1805 6.88077C13.1366 6.93021 13.0789 6.96042 13.0075 6.97141H12.9827C12.9113 6.97141 12.8536 6.95218 12.8097 6.91373L7.10742 2.15909L1.40515 6.91373C1.33923 6.95767 1.27331 6.9769 1.20738 6.97141C1.13597 6.96042 1.07829 6.93021 1.03434 6.88077L0.523441 6.27099C0.479493 6.21605 0.460266 6.1515 0.465759 6.07734C0.471253 6.00318 0.501467 5.94412 0.556402 5.90017L6.48116 0.964247C6.65695 0.821416 6.86571 0.75 7.10742 0.75C7.34914 0.75 7.55789 0.821416 7.73368 0.964247L9.74431 2.64526V1.03841C9.74431 0.9615 9.76903 0.898325 9.81847 0.848883C9.86791 0.799442 9.93109 0.774721 10.008 0.774721H11.5901C11.667 0.774721 11.7302 0.799442 11.7797 0.848883C11.8291 0.898325 11.8538 0.9615 11.8538 1.03841V4.40044L13.6584 5.90017C13.7134 5.94412 13.7436 6.00318 13.7491 6.07734C13.7546 6.1515 13.7354 6.21605 13.6914 6.27099Z" fill="#8F8F8F"/>
</svg>
