<svg width="10" height="10" viewBox="0 0 10 10" fill="none" xmlns="http://www.w3.org/2000/svg">
<path d="M8.075 10H10C10 4.48889 5.5125 0 0 0V1.91746C4.45 1.91746 8.075 5.54286 8.075 10ZM4.675 10H6.6C6.6 6.36191 3.6375 3.39683 0 3.39683V5.31429C1.25 5.31429 2.41875 5.80317 3.30625 6.68571C3.74035 7.11757 4.08507 7.63325 4.32013 8.20242C4.55519 8.7716 4.67584 9.38277 4.675 10ZM1.33125 9.9873C2.0625 9.9873 2.6625 9.39683 2.6625 8.66032C2.6625 7.93016 2.0625 7.33333 1.33125 7.33333C0.59375 7.33333 0 7.93016 0 8.66032C0 9.39683 0.59375 9.9873 1.33125 9.9873Z" fill="white"/>
</svg>
