<svg width="33" height="29" viewBox="0 0 33 29" fill="none" xmlns="http://www.w3.org/2000/svg">
<path d="M16.5 0C12.5131 0 9.28125 3.1951 9.28125 7.13672C9.28125 10.3233 13.9992 16.1312 15.8068 18.2394C16.1729 18.6665 16.8277 18.6665 17.1932 18.2394C19.0008 16.1312 23.7188 10.3233 23.7188 7.13672C23.7188 3.1951 20.4869 0 16.5 0ZM16.5 9.51562C15.1708 9.51562 14.0938 8.45078 14.0938 7.13672C14.0938 5.82266 15.1708 4.75781 16.5 4.75781C17.8292 4.75781 18.9062 5.82266 18.9062 7.13672C18.9062 8.45078 17.8292 9.51562 16.5 9.51562ZM1.15271 12.2315C0.812498 12.3661 0.520856 12.5983 0.315396 12.8982C0.109936 13.1982 8.14807e-05 13.5521 0 13.9143L0 28.0926C0 28.7338 0.654844 29.1722 1.25698 28.9343L9.16667 25.375V12.1732C8.66021 11.2681 8.24599 10.3868 7.94922 9.54395L1.15271 12.2315ZM16.5 20.3719C15.6939 20.3719 14.9314 20.0219 14.4083 19.4113C13.2819 18.0972 12.084 16.6008 11 15.0658V25.3744L22 28.9994V15.0664C20.916 16.6008 19.7186 18.0978 18.5917 19.4119C18.0686 20.0219 17.3061 20.3719 16.5 20.3719ZM31.743 9.1282L23.8333 12.6875V29L31.8473 25.831C32.1875 25.6965 32.4792 25.4643 32.6847 25.1643C32.8902 24.8644 33 24.5104 33 24.1482V9.96988C33 9.32871 32.3452 8.89031 31.743 9.1282Z" fill="#C4C4C4" fill-opacity="0.5"/>
</svg>
