<svg width="9" height="14" viewBox="0 0 9 14" fill="none" xmlns="http://www.w3.org/2000/svg">
<path fill-rule="evenodd" clip-rule="evenodd" d="M8.00635 2.70415C8.50088 4.75345 6.96298 6.40704 5.28607 6.76496C0.835289 7.71851 -1.08563 1.39749 3.66345 0.124493C5.84069 -0.458077 7.61898 1.10552 8.00635 2.70415ZM6.20407 3.02055C5.98468 2.2415 5.12378 1.52978 4.05001 1.81694C1.74027 2.42837 2.70398 5.62769 4.95363 5.05543C5.74647 4.85414 6.48428 4.01944 6.20407 3.02055ZM2.07036 7.34322C3.56196 8.14775 5.51791 8.13118 6.99084 7.30593C7.06897 7.26253 7.14381 7.21212 7.21944 7.16117C7.4495 7.00619 7.68688 6.84628 8.04646 6.86395C8.68923 6.89779 9.98822 7.93989 7.70305 9.02756C6.87081 9.4228 6.5652 9.48212 6.16699 9.55942C5.96473 9.59868 5.73859 9.64258 5.40742 9.73749C5.5323 9.96954 6.54294 10.88 7.27103 11.5359C7.531 11.77 7.75494 11.9718 7.88968 12.0986C8.74149 12.8997 8.01659 13.8099 7.14314 13.7187C6.58845 13.66 4.84751 11.917 4.53172 11.5586C4.21606 11.7078 3.79311 12.1292 3.36024 12.5605C2.81953 13.0993 2.26335 13.6535 1.88148 13.7118C0.973682 13.8506 0.216685 12.8755 1.13942 12.033L3.59257 9.75337C3.46215 9.68797 3.17211 9.63022 2.88942 9.57393C2.6915 9.53452 2.49718 9.49583 2.36375 9.45573C-1.2122 8.37358 0.06215 6.77141 1.08641 6.8674C1.35549 6.8931 1.60469 7.05261 1.82997 7.19681C1.91345 7.25025 1.99365 7.30158 2.07036 7.34322Z" fill="white"/>
</svg>
