<svg width="22" height="22" viewBox="0 0 22 22" fill="none" xmlns="http://www.w3.org/2000/svg">
<path d="M16.0662 14.7635L16.0661 14.7636L16.0724 14.7656C17.4154 15.2012 18.8557 15.4433 20.345 15.4433C20.6989 15.4433 21 15.7445 21 16.0983V20.1233C21 20.3701 20.9354 20.6061 20.8238 20.7651C20.7265 20.9037 20.5866 21 20.345 21C9.79428 21 1 12.217 1 1.655C1 1.38897 1.10246 1.25418 1.23579 1.16505C1.39549 1.0583 1.63485 1 1.88833 1H5.925C6.27886 1 6.58 1.30114 6.58 1.655C6.58 3.13978 6.8091 4.58005 7.25744 5.92679C7.32916 6.15915 7.279 6.41261 7.10806 6.60063L4.85423 8.51927L4.56054 8.76928L4.72779 9.11681C6.42425 12.6421 9.60122 15.6976 13.0014 17.3196L13.36 17.4907L13.6077 17.18L15.4207 14.905C15.5024 14.8276 15.6031 14.7731 15.7128 14.747C15.8298 14.7192 15.9523 14.7249 16.0662 14.7635Z" stroke="#DADADA" stroke-opacity="0.5"/>
</svg>
