<svg width="13" height="9" viewBox="0 0 13 9" fill="none" xmlns="http://www.w3.org/2000/svg">
<path fill-rule="evenodd" clip-rule="evenodd" d="M0 7.97906C1.1804 8.62425 2.5818 9 4.0885 9C8.9947 9 11.6772 5.53725 11.6772 2.53463C11.6772 2.43619 11.6746 2.33888 11.6694 2.24156C12.1907 1.92094 12.6432 1.521 13 1.06537C12.5223 1.2465 12.0081 1.368 11.4686 1.422C12.0192 1.14244 12.441 0.695813 12.6412 0.165938C12.1258 0.425813 11.5544 0.614813 10.9473 0.716625C10.4611 0.275625 9.76755 0 9.00055 0C7.52765 0 6.33295 1.01644 6.33295 2.27081C6.33295 2.44969 6.357 2.62238 6.4025 2.78888C4.186 2.69438 2.21975 1.78988 0.90545 0.415125C0.676 0.7515 0.54405 1.14075 0.54405 1.55756C0.54405 2.34563 1.01465 3.04144 1.7303 3.44869C1.29285 3.438 0.88205 3.33506 0.52195 3.16463C0.52195 3.17419 0.52195 3.18375 0.52195 3.19331C0.52195 4.29356 1.44235 5.21269 2.6611 5.42138C2.43815 5.47369 2.2022 5.50069 1.9591 5.50069C1.78685 5.50069 1.6198 5.48719 1.4573 5.46019C1.79595 6.36356 2.78135 7.02056 3.9481 7.038C3.0355 7.64775 1.88695 8.01 0.63635 8.01C0.4212 8.01 0.2093 8.001 0 7.97906Z" fill="white"/>
</svg>
