<svg width="16" height="8" viewBox="0 0 16 8" fill="none" xmlns="http://www.w3.org/2000/svg">
<path fill-rule="evenodd" clip-rule="evenodd" d="M7.82836 7.96636H8.78481C8.78481 7.96636 9.0735 7.93863 9.22095 7.79949C9.3571 7.67125 9.35258 7.4311 9.35258 7.4311C9.35258 7.4311 9.33394 6.30662 9.92939 6.14074C10.5164 5.97734 11.2706 7.2276 12.0694 7.70839C12.6739 8.07232 13.1332 7.9926 13.1332 7.9926L15.2698 7.96636C15.2698 7.96636 16.3873 7.90595 15.8574 7.13599C15.8139 7.07311 15.5484 6.56607 14.2688 5.52477C12.9287 4.43495 13.1084 4.61122 14.7224 2.72569C15.7048 1.57793 16.0981 0.8768 15.9749 0.57674C15.8579 0.290543 15.1354 0.366301 15.1354 0.366301L12.7293 0.379175C12.7293 0.379175 12.5507 0.357883 12.4186 0.427204C12.2897 0.49504 12.2067 0.653488 12.2067 0.653488C12.2067 0.653488 11.8254 1.54179 11.318 2.29739C10.2469 3.89177 9.8181 3.97594 9.64297 3.87691C9.23564 3.64617 9.33733 2.95049 9.33733 2.45583C9.33733 0.910471 9.60511 0.26628 8.81701 0.0994149C8.55544 0.0444532 8.3628 0.00781211 7.6939 0.00187031C6.83574 -0.00605209 6.10922 0.00385092 5.69794 0.180619C5.42394 0.29797 5.21265 0.559904 5.34146 0.574759C5.50021 0.593575 5.86064 0.659925 6.0516 0.887694C6.29791 1.18181 6.28944 1.84185 6.28944 1.84185C6.28944 1.84185 6.43124 3.66053 5.95838 3.88682C5.6341 4.0413 5.18949 3.7254 4.23416 2.27857C3.74492 1.53783 3.37544 0.718848 3.37544 0.718848C3.37544 0.718848 3.30426 0.565846 3.17715 0.483651C3.02291 0.384621 2.80767 0.352932 2.80767 0.352932L0.521329 0.366301C0.521329 0.366301 0.178406 0.374718 0.0524226 0.505438C-0.0600019 0.621798 0.0433835 0.862441 0.0433835 0.862441C0.0433835 0.862441 1.83314 4.53249 3.8596 6.38188C5.71828 8.07777 7.82836 7.96636 7.82836 7.96636Z" fill="white"/>
</svg>
