<svg width="13" height="9" viewBox="0 0 13 9" fill="none" xmlns="http://www.w3.org/2000/svg">
<path fill-rule="evenodd" clip-rule="evenodd" d="M4.87448 5.88587L4.87409 2.45038L8.19354 4.17405L4.87448 5.88587ZM12.1629 1.85511C12.1629 1.85511 12.0427 1.01257 11.6745 0.641552C11.2073 0.15437 10.6836 0.152077 10.4436 0.123801C8.72439 0 6.14555 0 6.14555 0H6.14017C6.14017 0 3.56132 0 1.84209 0.123801C1.60175 0.152077 1.07846 0.15437 0.61083 0.641552C0.242643 1.01257 0.122857 1.85511 0.122857 1.85511C0.122857 1.85511 0 2.84476 0 3.83403V4.76177C0 5.75142 0.122857 6.74069 0.122857 6.74069C0.122857 6.74069 0.242643 7.58322 0.61083 7.95425C1.07846 8.44143 1.69236 8.42614 1.96571 8.47696C2.94857 8.57096 6.14286 8.6 6.14286 8.6C6.14286 8.6 8.72439 8.59618 10.4436 8.47238C10.6836 8.44372 11.2073 8.44143 11.6745 7.95425C12.0427 7.58322 12.1629 6.74069 12.1629 6.74069C12.1629 6.74069 12.2857 5.75142 12.2857 4.76177V3.83403C12.2857 2.84476 12.1629 1.85511 12.1629 1.85511Z" fill="white"/>
</svg>
